<svg width="457.00002441406247px" height="128.20000610351562px" xmlns="http://www.w3.org/2000/svg" viewBox="21.499987792968767 10.89999694824219 457.00002441406247 128.20000610351562" style="background: rgba(0, 0, 0, 0) none repeat scroll 0% 0%;" preserveAspectRatio="xMidYMid"><defs><linearGradient id="editing-gradow-gradient" x1="0" x2="1" y1="0.5" y2="0.5" gradientUnits="objectBoundingBox"><stop offset="0" stop-color="#5209d5"></stop><stop offset="1" stop-color="#d206d2"></stop></linearGradient><filter id="editing-gradow-filter" x="-100%" y="-100%" width="300%" height="300%"><feFlood flood-color="rgba(87.31764705882352%,84.9527061873477%,77.42493179920515%,0.848)" result="flood"></feFlood><feComposite operator="in" in2="SourceAlpha" in="flood" result="shadow"></feComposite><feOffset dx="-4" dy="-4" in="SourceGraphic" result="offset-1"></feOffset><feOffset dx="4" dy="4" in="shadow" result="offset-2"></feOffset><feMerge><feMergeNode in="offset-2"></feMergeNode><feMergeNode in="offset-1"></feMergeNode></feMerge></filter></defs><g filter="url(#editing-gradow-filter)"><g transform="translate(89.41618871688843, 108.18499755859375)"><path d="M12.16-28.35L12.16-28.35L12.16-28.35Q12.16-8.51 13.06-2.37L13.06-2.37L13.06-2.37Q13.06-0.83 10.11 0.16L10.11 0.16L10.11 0.16Q7.17 1.15 5.25 1.15L5.25 1.15L5.25 1.15Q3.33 1.15 3.33 0.58L3.33 0.58L3.33 0.58Q3.33 0.19 3.52-0.38L3.52-0.38L3.52-0.38Q4.74-3.07 4.74-22.02L4.74-22.02L4.74-22.02Q4.74-39.94 3.20-41.92L3.20-41.92L2.94-42.30L2.94-42.30Q2.56-42.62 2.56-43.10L2.56-43.10L2.56-43.10Q2.56-43.58 3.26-43.90L3.26-43.90L3.26-43.90Q4.22-44.48 6.69-45.06L6.69-45.06L6.69-45.06Q9.15-45.63 11.14-45.63L11.14-45.63L11.14-45.63Q13.12-45.63 13.12-44.74L13.12-44.74L13.12-44.54L13.12-44.54Q12.35-37.89 12.16-28.35ZM32.06 0.38L32.06 0.38L32.06 0.38Q32.96-4.10 32.96-12.19L32.96-12.19L32.96-12.19Q32.96-20.29 32.90-21.76L32.90-21.76L32.90-21.76Q32.83-23.23 32-24.13L32-24.13L32-24.13Q31.17-25.02 30.56-25.15L30.56-25.15L30.56-25.15Q29.95-25.28 28.86-25.28L28.86-25.28L28.86-25.28Q27.78-25.28 26.75-24.29L26.75-24.29L26.75-24.29Q25.73-23.30 25.54-22.27L25.54-22.27L25.28-21.25L25.28-21.25Q25.09-19.33 25.09-12.74L25.09-12.74L25.09-12.74Q25.09-6.14 25.38-4.45L25.38-4.45L25.38-4.45Q25.66-2.75 25.66-2.18L25.66-2.18L25.66-2.18Q25.66-1.60 25.15-1.02L25.15-1.02L25.15-1.02Q22.98 1.28 19.01 1.28L19.01 1.28L19.01 1.28Q17.60 1.28 17.60 0.45L17.60 0.45L17.60 0.45Q18.88-7.23 18.88-19.14L18.88-19.14L18.88-19.14Q18.88-23.55 18.69-25.09L18.69-25.09L18.43-27.14L18.43-27.14Q18.37-27.84 18.18-28.67L18.18-28.67L18.18-28.67Q18.18-29.44 20.16-29.44L20.16-29.44L20.16-29.44Q23.10-29.44 24.06-27.26L24.06-27.26L24.06-27.26Q24.13-27.01 24.32-27.01L24.32-27.01L24.32-27.01Q24.51-27.01 25.22-27.52L25.22-27.52L25.22-27.52Q27.33-29.18 30.91-29.18L30.91-29.18L30.91-29.18Q32.96-29.18 34.94-28.42L34.94-28.42L34.94-28.42Q36.93-27.65 37.70-26.37L37.70-26.37L37.70-26.37Q37.76-26.24 37.89-26.24L37.89-26.24L37.89-26.24Q38.02-26.24 38.27-26.50L38.27-26.50L38.27-26.50Q40.96-29.18 45.25-29.18L45.25-29.18L45.25-29.18Q50.94-29.18 53.06-25.09L53.06-25.09L53.06-25.09Q53.82-23.49 53.82-21.06L53.82-21.06L53.82-21.06Q53.82-18.62 53.44-14.14L53.44-14.14L53.44-14.14Q53.06-9.66 53.06-7.30L53.06-7.30L53.06-7.30Q53.06-4.93 53.54-3.01L53.54-3.01L53.54-3.01Q54.02-1.09 54.50-0.26L54.50-0.26L54.50-0.26Q54.98 0.58 54.98 0.70L54.98 0.70L54.98 0.70Q54.98 1.54 53.18 1.54L53.18 1.54L53.18 1.54Q48.77 1.54 47.04-0.26L47.04-0.26L47.04-0.26Q45.31-2.05 45.31-4.96L45.31-4.96L45.31-4.96Q45.31-7.87 46.50-12.83L46.50-12.83L46.50-12.83Q47.68-17.79 47.68-20.29L47.68-20.29L47.68-20.29Q47.68-25.34 43.58-25.34L43.58-25.34L43.58-25.34Q41.86-25.34 40.83-24.32L40.83-24.32L40.83-24.32Q39.81-23.30 39.62-22.27L39.62-22.27L39.49-21.25L39.49-21.25Q39.23-18.30 39.23-14.14L39.23-14.14L39.23-14.14Q39.23-9.98 39.36-7.65L39.36-7.65L39.36-7.65Q39.49-5.31 39.62-4L39.62-4L39.62-4Q39.74-2.69 39.74-2.43L39.74-2.43L39.74-2.43Q39.74-0.64 37.50 0.32L37.50 0.32L37.50 0.32Q35.26 1.28 33.15 1.28L33.15 1.28L33.15 1.28Q32.06 1.28 32.06 0.38ZM78.46-19.20L78.46-19.20L78.34-11.01L78.34-11.01Q78.34-2.50 80.19-0.77L80.19-0.77L80.19-0.77Q80.45-0.51 80.45-0.19L80.45-0.19L80.45-0.19Q80.45 0.77 76.32 0.77L76.32 0.77L76.32 0.77Q72.19 0.77 71.94-1.66L71.94-1.66L71.94-1.66Q71.87-2.24 71.87-4.03L71.87-4.03L72.13-14.27L72.13-14.27Q72.13-14.72 71.62-14.72L71.62-14.72L71.62-14.72Q68.54-14.72 65.86-12.99L65.86-12.99L65.86-12.99Q63.17-11.26 63.17-8.58L63.17-8.58L63.17-8.58Q63.17-7.17 63.94-6.21L63.94-6.21L63.94-6.21Q64.70-5.25 65.82-5.25L65.82-5.25L65.82-5.25Q66.94-5.25 67.68-5.70L67.68-5.70L67.68-5.70Q68.42-6.14 68.54-6.21L68.54-6.21L68.54-6.21Q69.63-6.08 69.63-3.94L69.63-3.94L69.63-3.94Q69.63-1.79 67.65-0.48L67.65-0.48L67.65-0.48Q65.66 0.83 63.49 0.83L63.49 0.83L63.49 0.83Q61.31 0.83 59.74 0.06L59.74 0.06L59.74 0.06Q58.18-0.70 57.47-1.66L57.47-1.66L57.47-1.66Q56.77-2.62 56.32-3.84L56.32-3.84L56.32-3.84Q55.87-5.31 55.87-6.40L55.87-6.40L55.87-6.40Q55.87-10.88 58.69-13.57L58.69-13.57L58.69-13.57Q61.50-16.26 65.92-17.41L65.92-17.41L65.92-17.41Q71.74-18.56 72-19.52L72-19.52L72-19.52Q72.19-20.22 72.19-21.89L72.19-21.89L72.19-21.89Q72.19-25.28 68.74-25.28L68.74-25.28L68.74-25.28Q67.26-25.28 66.11-24.35L66.11-24.35L66.11-24.35Q64.96-23.42 64.96-22.02L64.96-22.02L65.34-20.48L65.34-20.48Q65.22-19.39 63.04-19.20L63.04-19.20L62.34-19.14L62.34-19.14Q60.42-19.14 59.30-20.10L59.30-20.10L59.30-20.10Q58.18-21.06 58.18-22.66L58.18-22.66L58.18-22.66Q58.18-23.68 58.85-24.93L58.85-24.93L58.85-24.93Q59.52-26.18 60.54-26.94L60.54-26.94L60.54-26.94Q61.57-27.71 63.71-28.32L63.71-28.32L63.71-28.32Q65.86-28.93 67.84-28.93L67.84-28.93L67.84-28.93Q69.82-28.93 70.91-28.80L70.91-28.80L70.91-28.80Q72-28.67 73.89-28.19L73.89-28.19L73.89-28.19Q75.78-27.71 77.02-26.37L77.02-26.37L77.02-26.37Q78.27-25.02 78.37-23.52L78.37-23.52L78.37-23.52Q78.46-22.02 78.46-19.20ZM86.59-25.82L86.59-25.82L86.59-25.82Q88.00-27.26 90.30-28.26L90.30-28.26L90.30-28.26Q92.61-29.25 94.72-29.25L94.72-29.25L94.72-29.25Q96.83-29.25 99.01-28.29L99.01-28.29L99.01-28.29Q99.26-28.29 99.39-28.42L99.39-28.42L99.39-28.42Q101.06-30.08 104.26-30.08L104.26-30.08L104.26-30.08Q105.02-30.08 105.02-29.38L105.02-29.38L105.02-29.38Q105.02-29.31 104.90-28.80L104.90-28.80L104.90-28.80Q104.77-28.29 104.58-27.30L104.58-27.30L104.58-27.30Q104.38-26.30 104.26-24.90L104.26-24.90L104.26-24.90Q103.81-21.25 103.78-16.83L103.78-16.83L103.78-16.83Q103.74-12.42 103.74-8L103.74-8L103.94 5.44L103.94 5.44Q103.94 11.90 100.61 16.19L100.61 16.19L100.61 16.19Q99.26 17.92 96.54 19.20L96.54 19.20L96.54 19.20Q93.82 20.48 90.18 20.48L90.18 20.48L90.18 20.48Q89.34 19.97 89.34 19.46L89.34 19.46L89.34 19.46Q89.34 18.94 90.05 18.62L90.05 18.62L90.05 18.62Q94.08 16.77 95.81 9.82L95.81 9.82L95.81 9.82Q97.54 2.88 97.54-11.26L97.54-11.26L97.41-20.22L97.22-24.58L97.22-24.58Q97.22-25.15 95.42-25.41L95.42-25.41L95.42-25.41Q93.12-25.41 91.55-23.90L91.55-23.90L91.55-23.90Q89.98-22.40 89.41-19.97L89.41-19.97L89.41-19.97Q88.38-16.06 88.38-13.22L88.38-13.22L88.38-13.22Q88.38-10.37 89.31-8.19L89.31-8.19L89.31-8.19Q90.24-6.02 92.54-6.02L92.54-6.02L92.54-6.02Q93.18-6.02 93.73-6.27L93.73-6.27L93.73-6.27Q94.27-6.53 94.46-6.53L94.46-6.53L94.46-6.53Q95.10-6.53 95.10-5.25L95.10-5.25L95.10-5.25Q95.10-3.97 94.91-3.17L94.91-3.17L94.91-3.17Q94.72-2.37 94.14-1.41L94.14-1.41L94.14-1.41Q92.86 0.70 89.15 0.70L89.15 0.70L89.15 0.70Q85.44 0.70 83.84-1.98L83.84-1.98L83.84-1.98Q82.18-4.74 81.92-6.91L81.92-6.91L81.92-6.91Q81.54-10.18 81.54-11.20L81.54-11.20L81.54-11.20Q81.54-12.22 81.57-12.83L81.57-12.83L81.57-12.83Q81.60-13.44 81.89-15.26L81.89-15.26L81.89-15.26Q82.18-17.09 82.66-18.72L82.66-18.72L82.66-18.72Q83.14-20.35 84.16-22.37L84.16-22.37L84.16-22.37Q85.18-24.38 86.59-25.82ZM113.98-16.26L113.98-16.26L114.05-14.66L114.05-14.66Q114.05-14.27 114.56-14.27L114.56-14.27L114.56-14.27Q116.61-14.46 118.14-15.33L118.14-15.33L118.14-15.33Q119.68-16.19 120.45-17.28L120.45-17.28L120.45-17.28Q121.98-19.65 122.11-21.38L122.11-21.38L122.18-22.14L122.18-22.14Q122.18-25.60 119.42-25.60L119.42-25.60L119.42-25.60Q117.38-25.60 116.10-23.81L116.10-23.81L116.10-23.81Q113.98-20.99 113.98-16.26ZM127.94-7.74L127.94-7.74L127.94-7.74Q127.94-5.31 126.94-3.49L126.94-3.49L126.94-3.49Q125.95-1.66 124.70-0.80L124.70-0.80L124.70-0.80Q123.46 0.06 121.79 0.58L121.79 0.58L121.79 0.58Q119.68 1.22 117.76 1.22L117.76 1.22L117.76 1.22Q112.38 1.22 109.82-2.82L109.82-2.82L109.82-2.82Q107.26-6.85 107.26-13.09L107.26-13.09L107.26-13.09Q107.26-19.33 110.43-24.19L110.43-24.19L110.43-24.19Q113.60-29.06 119.94-29.06L119.94-29.06L119.94-29.06Q125.70-29.06 127.74-25.02L127.74-25.02L127.74-25.02Q128.58-23.49 128.58-22.11L128.58-22.11L128.58-22.11Q128.58-20.74 128.45-19.94L128.45-19.94L128.45-19.94Q128.32-19.14 127.55-17.54L127.55-17.54L127.55-17.54Q126.78-15.94 125.50-14.66L125.50-14.66L125.50-14.66Q124.22-13.38 121.47-12.22L121.47-12.22L121.47-12.22Q118.72-11.07 115.01-10.69L115.01-10.69L115.01-10.69Q114.50-10.69 114.50-10.24L114.50-10.24L114.50-10.24Q114.50-9.66 114.91-8.54L114.91-8.54L114.91-8.54Q115.33-7.42 115.84-6.66L115.84-6.66L115.84-6.66Q117.25-4.86 120.00-4.86L120.00-4.86L120.00-4.86Q122.75-4.86 124.67-6.66L124.67-6.66L124.67-6.66Q125.70-7.62 126.34-9.02L126.34-9.02L126.34-9.02Q126.59-9.54 127.01-9.54L127.01-9.54L127.01-9.54Q127.42-9.54 127.68-8.83L127.68-8.83L127.68-8.83Q127.94-8.13 127.94-7.74ZM150.91-8.77L150.91-8.77L150.91-8.77Q150.91-6.02 149.86-3.97L149.86-3.97L149.86-3.97Q148.80-1.92 147.46-0.96L147.46-0.96L147.46-0.96Q146.11 0 144.26 0.58L144.26 0.58L144.26 0.58Q141.82 1.34 139.84 1.34L139.84 1.34L139.84 1.34Q135.68 1.34 132.93-0.29L132.93-0.29L132.93-0.29Q130.18-1.92 130.18-5.50L130.18-5.50L130.18-5.50Q130.18-7.62 131.33-8.96L131.33-8.96L131.33-8.96Q133.12-10.94 135.62-10.94L135.62-10.94L135.62-10.94Q136.38-10.94 136.38-10.24L136.38-10.24L136.38-10.24Q136.38-10.18 136.10-9.25L136.10-9.25L136.10-9.25Q135.81-8.32 135.81-6.91L135.81-6.91L135.81-6.91Q135.81-5.50 136.93-4.42L136.93-4.42L136.93-4.42Q138.05-3.33 139.65-3.33L139.65-3.33L139.65-3.33Q141.25-3.33 142.21-3.87L142.21-3.87L142.21-3.87Q143.17-4.42 143.55-5.25L143.55-5.25L143.55-5.25Q144.13-6.40 144.13-7.42L144.13-7.42L144.13-7.42Q144.13-9.28 142.27-10.62L142.27-10.62L142.27-10.62Q140.42-11.97 138.18-12.74L138.18-12.74L138.18-12.74Q135.94-13.50 134.08-15.30L134.08-15.30L134.08-15.30Q132.22-17.09 132.22-19.78L132.22-19.78L132.22-19.78Q132.22-24.38 135.14-26.69L135.14-26.69L135.14-26.69Q138.05-28.99 143.04-28.99L143.04-28.99L143.04-28.99Q145.22-28.99 147.62-28.38L147.62-28.38L147.62-28.38Q150.02-27.78 150.02-26.34L150.02-26.34L150.02-26.34Q150.02-24.90 149.54-23.68L149.54-23.68L149.54-23.68Q149.06-22.46 148.35-22.46L148.35-22.46L148.35-22.46Q147.97-22.46 147.84-22.75L147.84-22.75L147.84-22.75Q147.71-23.04 147.39-23.42L147.39-23.42L147.39-23.42Q147.07-23.81 145.86-24.42L145.86-24.42L145.86-24.42Q144.64-25.02 143.78-25.02L143.78-25.02L143.78-25.02Q142.91-25.02 142.62-24.99L142.62-24.99L142.62-24.99Q142.34-24.96 141.63-24.80L141.63-24.80L141.63-24.80Q140.93-24.64 140.35-24.32L140.35-24.32L140.35-24.32Q138.88-23.49 138.88-21.89L138.88-21.89L138.88-21.89Q138.88-20.86 139.33-20.38L139.33-20.38L139.33-20.38Q139.78-19.90 140.03-19.65L140.03-19.65L140.03-19.65Q140.29-19.39 140.93-19.04L140.93-19.04L140.93-19.04Q141.57-18.69 141.82-18.56L141.82-18.56L141.82-18.56Q142.08-18.43 142.98-18.02L142.98-18.02L142.98-18.02Q143.87-17.60 144.13-17.47L144.13-17.47L144.13-17.47Q150.91-14.27 150.91-8.77ZM187.33-12.74L187.20-18.82L187.20-18.82Q187.20-20.29 185.41-20.42L185.41-20.42L180.86-20.42L180.86-20.42Q180.35-20.42 180.35-20.74L180.35-20.74L180.35-20.74Q180.74-22.59 181.70-23.71L181.70-23.71L181.70-23.71Q182.66-24.83 183.30-24.96L183.30-24.96L183.30-24.96Q185.09-25.22 189.18-25.22L189.18-25.22L189.18-25.22Q193.28-25.22 194.30-25.18L194.30-25.18L194.30-25.18Q195.33-25.15 195.58-24.96L195.58-24.96L195.58-24.96Q195.84-24.64 195.84-24.22L195.84-24.22L195.84-24.22Q195.84-23.81 195.62-18.91L195.62-18.91L195.62-18.91Q195.39-14.02 195.39-10.14L195.39-10.14L195.39-10.14Q195.39-6.27 195.65-5.28L195.65-5.28L195.65-5.28Q195.90-4.29 195.90-4.03L195.90-4.03L195.90-4.03Q195.90-3.01 194.11-1.82L194.11-1.82L194.11-1.82Q192.32-0.64 188.70 0.26L188.70 0.26L188.70 0.26Q185.09 1.15 180.74 1.15L180.74 1.15L180.74 1.15Q174.91 1.15 170.62-2.88L170.62-2.88L170.62-2.88Q167.30-6.08 166.05-9.86L166.05-9.86L166.05-9.86Q164.80-13.63 164.80-20.48L164.80-20.48L164.80-20.48Q164.80-45.89 183.42-45.89L183.42-45.89L183.42-45.89Q186.56-45.89 189.06-45.22L189.06-45.22L189.06-45.22Q191.55-44.54 193.44-42.59L193.44-42.59L193.44-42.59Q195.33-40.64 195.33-37.57L195.33-37.57L195.33-37.57Q195.33-35.97 194.69-34.30L194.69-34.30L194.69-34.30Q193.54-30.91 189.57-30.91L189.57-30.91L189.57-30.91Q187.39-30.91 186.27-32.03L186.27-32.03L186.27-32.03Q185.15-33.15 185.15-35.14L185.15-35.14L185.15-35.14Q185.15-35.90 185.98-36.10L185.98-36.10L185.98-36.10Q187.20-36.80 187.20-38.50L187.20-38.50L187.20-38.50Q187.20-40.19 185.92-41.12L185.92-41.12L185.92-41.12Q184.64-42.05 183.23-42.05L183.23-42.05L183.23-42.05Q180.16-42.05 178.05-39.84L178.05-39.84L178.05-39.84Q175.94-37.63 174.98-34.05L174.98-34.05L174.98-34.05Q173.38-27.65 173.38-20.99L173.38-20.99L173.38-20.99Q173.38-10.11 178.69-6.53L178.69-6.53L178.69-6.53Q180.67-5.12 182.85-5.12L182.85-5.12L182.85-5.12Q186.88-5.12 187.14-6.59L187.14-6.59L187.14-6.59Q187.33-8.58 187.33-12.74L187.33-12.74ZM220.74-19.20L220.74-19.20L220.61-11.01L220.61-11.01Q220.61-2.50 222.46-0.77L222.46-0.77L222.46-0.77Q222.72-0.51 222.72-0.19L222.72-0.19L222.72-0.19Q222.72 0.77 218.59 0.77L218.59 0.77L218.59 0.77Q214.46 0.77 214.21-1.66L214.21-1.66L214.21-1.66Q214.14-2.24 214.14-4.03L214.14-4.03L214.40-14.27L214.40-14.27Q214.40-14.72 213.89-14.72L213.89-14.72L213.89-14.72Q210.82-14.72 208.13-12.99L208.13-12.99L208.13-12.99Q205.44-11.26 205.44-8.58L205.44-8.58L205.44-8.58Q205.44-7.17 206.21-6.21L206.21-6.21L206.21-6.21Q206.98-5.25 208.10-5.25L208.10-5.25L208.10-5.25Q209.22-5.25 209.95-5.70L209.95-5.70L209.95-5.70Q210.69-6.14 210.82-6.21L210.82-6.21L210.82-6.21Q211.90-6.08 211.90-3.94L211.90-3.94L211.90-3.94Q211.90-1.79 209.92-0.48L209.92-0.48L209.92-0.48Q207.94 0.83 205.76 0.83L205.76 0.83L205.76 0.83Q203.58 0.83 202.02 0.06L202.02 0.06L202.02 0.06Q200.45-0.70 199.74-1.66L199.74-1.66L199.74-1.66Q199.04-2.62 198.59-3.84L198.59-3.84L198.59-3.84Q198.14-5.31 198.14-6.40L198.14-6.40L198.14-6.40Q198.14-10.88 200.96-13.57L200.96-13.57L200.96-13.57Q203.78-16.26 208.19-17.41L208.19-17.41L208.19-17.41Q214.02-18.56 214.27-19.52L214.27-19.52L214.27-19.52Q214.46-20.22 214.46-21.89L214.46-21.89L214.46-21.89Q214.46-25.28 211.01-25.28L211.01-25.28L211.01-25.28Q209.54-25.28 208.38-24.35L208.38-24.35L208.38-24.35Q207.23-23.42 207.23-22.02L207.23-22.02L207.62-20.48L207.62-20.48Q207.49-19.39 205.31-19.20L205.31-19.20L204.61-19.14L204.61-19.14Q202.69-19.14 201.57-20.10L201.57-20.10L201.57-20.10Q200.45-21.06 200.45-22.66L200.45-22.66L200.45-22.66Q200.45-23.68 201.12-24.93L201.12-24.93L201.12-24.93Q201.79-26.18 202.82-26.94L202.82-26.94L202.82-26.94Q203.84-27.71 205.98-28.32L205.98-28.32L205.98-28.32Q208.13-28.93 210.11-28.93L210.11-28.93L210.11-28.93Q212.10-28.93 213.18-28.80L213.18-28.80L213.18-28.80Q214.27-28.67 216.16-28.19L216.16-28.19L216.16-28.19Q218.05-27.71 219.30-26.37L219.30-26.37L219.30-26.37Q220.54-25.02 220.64-23.52L220.64-23.52L220.64-23.52Q220.74-22.02 220.74-19.20ZM232.64-36.61L232.64-36.61L232.26-13.12L232.26-13.12Q232.26-2.11 232.96 0.06L232.96 0.06L232.96 0.06Q233.15 0.45 233.15 0.83L233.15 0.83L233.15 0.83Q233.15 1.60 231.30 1.60L231.30 1.60L231.30 1.60Q229.44 1.60 227.17 0.67L227.17 0.67L227.17 0.67Q224.90-0.26 224.90-1.73L224.90-1.73L224.90-1.73Q226.18-10.69 226.18-25.66L226.18-25.66L225.92-35.46L225.92-35.46Q225.79-37.25 225.18-38.53L225.18-38.53L225.18-38.53Q224.58-39.81 224-40.19L224-40.19L223.49-40.51L223.49-40.51Q223.04-40.77 223.04-41.09L223.04-41.09L223.04-41.09Q223.04-41.98 225.82-43.30L225.82-43.30L225.82-43.30Q228.61-44.61 231.23-44.61L231.23-44.61L231.23-44.61Q232.26-44.61 232.38-43.90L232.38-43.90L232.38-43.90Q232.64-42.24 232.64-36.61ZM245.63-36.61L245.63-36.61L245.25-13.12L245.25-13.12Q245.25-2.11 245.95 0.06L245.95 0.06L245.95 0.06Q246.14 0.45 246.14 0.83L246.14 0.83L246.14 0.83Q246.14 1.60 244.29 1.60L244.29 1.60L244.29 1.60Q242.43 1.60 240.16 0.67L240.16 0.67L240.16 0.67Q237.89-0.26 237.89-1.73L237.89-1.73L237.89-1.73Q239.17-10.69 239.17-25.66L239.17-25.66L238.91-35.46L238.91-35.46Q238.78-37.25 238.18-38.53L238.18-38.53L238.18-38.53Q237.57-39.81 236.99-40.19L236.99-40.19L236.48-40.51L236.48-40.51Q236.03-40.77 236.03-41.09L236.03-41.09L236.03-41.09Q236.03-41.98 238.82-43.30L238.82-43.30L238.82-43.30Q241.60-44.61 244.22-44.61L244.22-44.61L244.22-44.61Q245.25-44.61 245.38-43.90L245.38-43.90L245.38-43.90Q245.63-42.24 245.63-36.61ZM256.06-16.26L256.06-16.26L256.13-14.66L256.13-14.66Q256.13-14.27 256.64-14.27L256.64-14.27L256.64-14.27Q258.69-14.46 260.22-15.33L260.22-15.33L260.22-15.33Q261.76-16.19 262.53-17.28L262.53-17.28L262.53-17.28Q264.06-19.65 264.19-21.38L264.19-21.38L264.26-22.14L264.26-22.14Q264.26-25.60 261.50-25.60L261.50-25.60L261.50-25.60Q259.46-25.60 258.18-23.81L258.18-23.81L258.18-23.81Q256.06-20.99 256.06-16.26ZM270.02-7.74L270.02-7.74L270.02-7.74Q270.02-5.31 269.02-3.49L269.02-3.49L269.02-3.49Q268.03-1.66 266.78-0.80L266.78-0.80L266.78-0.80Q265.54 0.06 263.87 0.58L263.87 0.58L263.87 0.58Q261.76 1.22 259.84 1.22L259.84 1.22L259.84 1.22Q254.46 1.22 251.90-2.82L251.90-2.82L251.90-2.82Q249.34-6.85 249.34-13.09L249.34-13.09L249.34-13.09Q249.34-19.33 252.51-24.19L252.51-24.19L252.51-24.19Q255.68-29.06 262.02-29.06L262.02-29.06L262.02-29.06Q267.78-29.06 269.82-25.02L269.82-25.02L269.82-25.02Q270.66-23.49 270.66-22.11L270.66-22.11L270.66-22.11Q270.66-20.74 270.53-19.94L270.53-19.94L270.53-19.94Q270.40-19.14 269.63-17.54L269.63-17.54L269.63-17.54Q268.86-15.94 267.58-14.66L267.58-14.66L267.58-14.66Q266.30-13.38 263.55-12.22L263.55-12.22L263.55-12.22Q260.80-11.07 257.09-10.69L257.09-10.69L257.09-10.69Q256.58-10.69 256.58-10.24L256.58-10.24L256.58-10.24Q256.58-9.66 256.99-8.54L256.99-8.54L256.99-8.54Q257.41-7.42 257.92-6.66L257.92-6.66L257.92-6.66Q259.33-4.86 262.08-4.86L262.08-4.86L262.08-4.86Q264.83-4.86 266.75-6.66L266.75-6.66L266.75-6.66Q267.78-7.62 268.42-9.02L268.42-9.02L268.42-9.02Q268.67-9.54 269.09-9.54L269.09-9.54L269.09-9.54Q269.50-9.54 269.76-8.83L269.76-8.83L269.76-8.83Q270.02-8.13 270.02-7.74ZM292.74-22.02L292.42-17.15L292.67-14.91L292.67-14.91Q292.67-13.70 290.37-13.70L290.37-13.70L290.37-13.70Q285.70-13.70 285.70-17.22L285.70-17.22L285.70-17.22Q285.70-18.05 286.14-19.52L286.14-19.52L286.14-19.52Q286.59-20.99 286.59-22.08L286.59-22.08L286.59-22.08Q286.59-23.17 285.95-23.97L285.95-23.97L285.95-23.97Q285.31-24.77 284.10-24.77L284.10-24.77L284.10-24.77Q282.88-24.77 282.02-23.90L282.02-23.90L282.02-23.90Q281.15-23.04 280.96-22.14L280.96-22.14L280.70-21.25L280.70-21.25Q280.32-19.26 280.32-14.62L280.32-14.62L280.32-14.62Q280.32-9.98 280.45-7.33L280.45-7.33L280.45-7.33Q280.58-4.67 280.70-3.68L280.70-3.68L280.70-3.68Q280.83-2.69 280.83-2.50L280.83-2.50L280.83-2.50Q280.83-0.90 278.85 0.10L278.85 0.10L278.85 0.10Q276.86 1.09 274.88 1.09L274.88 1.09L274.88 1.09Q272.90 1.09 272.90 0.26L272.90 0.26L273.22-1.73L273.22-1.73Q274.11-7.30 274.11-16.26L274.11-16.26L274.11-16.26Q274.11-25.22 273.47-28.42L273.47-28.42L273.47-28.42Q273.47-29.18 274.82-29.18L274.82-29.18L274.82-29.18Q278.27-29.18 279.42-26.82L279.42-26.82L279.42-26.82Q279.49-26.56 279.65-26.56L279.65-26.56L279.65-26.56Q279.81-26.56 280.51-27.14L280.51-27.14L280.51-27.14Q282.62-28.86 285.50-28.86L285.50-28.86L285.50-28.86Q287.30-28.86 289.09-28.16L289.09-28.16L289.09-28.16Q292.74-26.69 292.74-22.02L292.74-22.02ZM306.94 17.73L306.94 17.73L306.94 17.73Q306.94 18.50 306.18 18.50L306.18 18.50L306.11 18.50L306.11 18.50Q304 18.50 301.34 17.02L301.34 17.02L301.34 17.02Q298.69 15.55 298.69 13.63L298.69 13.63L298.69 13.63Q298.69 11.71 301.12 6.94L301.12 6.94L301.12 6.94Q303.55 2.18 303.55 0.58L303.55 0.58L303.55 0.58Q303.55-1.15 301.89-5.63L301.89-5.63L301.89-5.63Q299.78-11.46 298.53-15.10L298.53-15.10L298.53-15.10Q297.28-18.75 295.84-21.54L295.84-21.54L295.84-21.54Q294.40-24.32 293.76-24.83L293.76-24.83L293.12-25.28L293.12-25.28Q292.42-25.66 292.42-26.11L292.42-26.11L292.42-26.11Q292.42-27.01 295.20-27.94L295.20-27.94L295.20-27.94Q297.98-28.86 300.10-28.86L300.10-28.86L300.10-28.86Q301.06-28.86 301.70-27.33L301.70-27.33L301.70-27.33Q302.85-24.32 304.19-19.01L304.19-19.01L304.19-19.01Q307.46-8.13 308.29-8.13L308.29-8.13L308.29-8.13Q308.86-8.13 310.62-12.61L310.62-12.61L310.62-12.61Q312.38-17.09 312.38-19.84L312.38-19.84L312.38-19.84Q312.38-24.64 309.57-25.47L309.57-25.47L309.57-25.47Q308.93-25.60 308.93-26.11L308.93-26.11L308.93-26.11Q308.93-27.26 311.94-28.32L311.94-28.32L311.94-28.32Q314.94-29.38 317.38-29.38L317.38-29.38L317.38-29.38Q319.49-29.38 319.49-26.62L319.49-26.62L319.49-26.62Q319.49-24.51 318.59-21.70L318.59-21.70L318.59-21.70Q317.70-18.88 316.93-17.25L316.93-17.25L316.93-17.25Q316.16-15.62 313.12-9.70L313.12-9.70L313.12-9.70Q310.08-3.78 308.10 0.70L308.10 0.70L308.10 0.70Q305.92 6.08 305.92 11.65L305.92 11.65L305.92 11.65Q305.92 14.59 306.43 16.06L306.43 16.06L306.43 16.06Q306.94 17.54 306.94 17.73Z" fill="url(#editing-gradow-gradient)"></path></g></g><style>text {
  font-size: 64px;
  font-family: Arial Black;
  dominant-baseline: central;
  text-anchor: middle;
}</style></svg>