<svg width="837.5px" height="157.1px" xmlns="http://www.w3.org/2000/svg" viewBox="-168.74000244140626 -3.5399932861328125 837.4800048828125 157.07998657226562" style="background: rgba(0, 0, 0, 0) none repeat scroll 0% 0%" preserveAspectRatio="xMidYMid"><defs><linearGradient id="editing-gradow-gradient" x1="0" x2="1" y1="0.5" y2="0.5" gradientUnits="objectBoundingBox"><stop offset="0" stop-color="#5209d5"></stop><stop offset="1" stop-color="#d206d2"></stop></linearGradient><filter id="editing-gradow-filter" x="-100%" y="-100%" width="300%" height="300%"><feFlood flood-color="rgba(95.88235294117648%,95.41187122598262%,93.91429458529672%,0.824)" result="flood"></feFlood><feComposite operator="in" in2="SourceAlpha" in="flood" result="shadow"></feComposite><feOffset dx="0" dy="0.9" in="SourceGraphic" result="offset-1"></feOffset><feOffset dx="0" dy="-0.9" in="shadow" result="offset-2"></feOffset><feMerge><feMergeNode in="offset-2"></feMergeNode><feMergeNode in="offset-1"></feMergeNode></feMerge></filter></defs><g filter="url(#editing-gradow-filter)"><g transform="matrix(1.3,0,0,1.7,-153.5,234)"><path d="M 35.2 -121.7 L 35.2 -121.7 L 35.2 -121.7 Q 28.8 -113.7 25.9 -105.7 L 25.9 -105.7 L 26 -105.7 L 26 -105.7 Q 37.3 -105.7 38.9 -105.7 L 38.9 -105.7 L 38.9 -105.7 Q 40.6 -105.6 40.8 -105.8 L 40.8 -105.8 L 40.8 -105.8 Q 40.9 -105.9 41 -106.2 L 41 -106.2 L 41 -106.2 Q 39.6 -116.1 38.8 -119.8 L 38.8 -119.8 L 38.8 -119.8 Q 38 -123.4 37.2 -123.4 L 37.2 -123.4 L 37.2 -123.4 Q 36.4 -123.4 35.2 -121.7 Z M 28 -83.6 L 28 -83.6 L 29.7 -83.9 L 29.7 -83.9 Q 30.5 -83.9 30.5 -83 L 30.5 -83 L 30.5 -83 Q 30.5 -80.2 29.4 -78.2 L 29.4 -78.2 L 29.4 -78.2 Q 28.3 -76.3 26.6 -75.5 L 26.6 -75.5 L 26.6 -75.5 Q 23.8 -74.1 21.9 -74.1 L 21.9 -74.1 L 21.9 -74.1 Q 18.2 -74.1 16.3 -76.9 L 16.3 -76.9 L 16.3 -76.9 Q 14.4 -79.7 14.4 -85.3 L 14.4 -85.3 L 14.4 -85.3 Q 14.4 -91 17.5 -99.9 L 17.5 -99.9 L 12.8 -99.9 L 12.8 -99.9 Q 11.9 -99.9 11.9 -100.8 L 11.9 -100.8 L 11.9 -100.8 Q 11.9 -101.7 13.3 -103.7 L 13.3 -103.7 L 13.3 -103.7 Q 14.7 -105.7 16.2 -105.7 L 16.2 -105.7 L 19.9 -105.7 L 19.9 -105.7 Q 25.6 -118.5 33.4 -127.8 L 33.4 -127.8 L 33.4 -127.8 Q 35.4 -130.2 38.4 -132.3 L 38.4 -132.3 L 38.4 -132.3 Q 41.3 -134.5 42.9 -134.5 L 42.9 -134.5 L 42.9 -134.5 Q 44.6 -134.5 45.4 -133 L 45.4 -133 L 45.4 -133 Q 47.5 -129.6 50.3 -108.1 L 50.3 -108.1 L 50.3 -108.1 Q 51.3 -98.9 53.7 -89.1 L 53.7 -89.1 L 53.7 -89.1 Q 56.1 -79.2 58.1 -77.6 L 58.1 -77.6 L 58.1 -77.6 Q 58.6 -77.3 58.6 -76.8 L 58.6 -76.8 L 58.6 -76.8 Q 58.6 -75.6 55.1 -74.5 L 55.1 -74.5 L 55.1 -74.5 Q 51.7 -73.5 49.9 -73.5 L 49.9 -73.5 L 49.9 -73.5 Q 48 -73.5 47.1 -73.9 L 47.1 -73.9 L 47.1 -73.9 Q 46.1 -74.4 45.9 -74.8 L 45.9 -74.8 L 45.9 -74.8 Q 44.4 -78 42.9 -89.9 L 42.9 -89.9 L 42.5 -93.7 L 42.5 -93.7 Q 42.1 -97.5 41.8 -99.5 L 41.8 -99.5 L 41.2 -99.9 L 24.3 -99.9 L 24.3 -99.9 Q 23.3 -95.8 23.3 -92.7 L 23.3 -92.7 L 23.3 -92.7 Q 23.3 -89.7 23.5 -88.2 L 23.5 -88.2 L 23.5 -88.2 Q 23.7 -86.8 24.9 -85.2 L 24.9 -85.2 L 24.9 -85.2 Q 26 -83.6 28 -83.6 Z M 60.5 -74.8 L 60.5 -74.8 L 60.5 -74.8 Q 62 -83.5 62 -95.7 L 62 -95.7 L 62 -95.7 Q 62 -108 61.2 -111.6 L 61.2 -111.6 L 61.2 -111.6 Q 61.2 -112.7 63.7 -112.7 L 63.7 -112.7 L 63.7 -112.7 Q 67.4 -112.7 68.6 -109.8 L 68.6 -109.8 L 68.6 -109.8 Q 68.7 -109.6 69 -109.6 L 69 -109.6 L 69 -109.6 Q 69.3 -109.6 69.5 -109.8 L 69.5 -109.8 L 69.5 -109.8 Q 72 -112.3 77.3 -112.3 L 77.3 -112.3 L 77.3 -112.3 Q 82.6 -112.3 85.6 -109.7 L 85.6 -109.7 L 85.6 -109.7 Q 88.7 -107 88.7 -101.9 L 88.7 -101.9 L 88.7 -101.9 Q 88.7 -98.8 88.2 -93.1 L 88.2 -93.1 L 88.2 -93.1 Q 87.7 -87.5 87.7 -84.7 L 87.7 -84.7 L 87.7 -84.7 Q 87.7 -78.2 89.8 -75.2 L 89.8 -75.2 L 89.8 -75.2 Q 90.2 -74.8 90.2 -74.4 L 90.2 -74.4 L 90.2 -74.4 Q 90.2 -73.4 87.9 -73.4 L 87.9 -73.4 L 87.9 -73.4 Q 77.9 -73.4 77.9 -82.3 L 77.9 -82.3 L 77.9 -82.3 Q 77.9 -85.7 79.4 -91.8 L 79.4 -91.8 L 79.4 -91.8 Q 80.9 -97.8 80.9 -101 L 80.9 -101 L 80.9 -101 Q 80.9 -107.5 75.6 -107.5 L 75.6 -107.5 L 75.6 -107.5 Q 73 -107.5 71.7 -105.9 L 71.7 -105.9 L 71.7 -105.9 Q 70.3 -104.4 70.2 -102.4 L 70.2 -102.4 L 70.2 -102.4 Q 70 -100.4 70 -94.9 L 70 -94.9 L 70 -94.9 Q 70 -86.5 70.6 -80.3 L 70.6 -80.3 L 70.7 -78.5 L 70.7 -78.5 Q 70.7 -76.2 67.8 -75 L 67.8 -75 L 67.8 -75 Q 64.8 -73.7 62.7 -73.7 L 62.7 -73.7 L 62.7 -73.7 Q 60.5 -73.7 60.5 -74.8 Z M 109 -111.7 L 109 -111.7 L 109 -111.7 Q 110.5 -111.7 111.7 -111.3 L 111.7 -111.3 L 111.7 -111.3 Q 112.8 -111 112.9 -111 L 112.9 -111 L 113.4 -111.4 L 113.1 -120.2 L 113.1 -120.2 Q 112.9 -122.5 112.1 -124.1 L 112.1 -124.1 L 112.1 -124.1 Q 111.3 -125.7 110.7 -126.2 L 110.7 -126.2 L 109.9 -126.6 L 109.9 -126.6 Q 109.4 -126.9 109.4 -127.3 L 109.4 -127.3 L 109.4 -127.3 Q 109.4 -128.5 113.2 -130.2 L 113.2 -130.2 L 113.2 -130.2 Q 117 -131.8 119.1 -131.8 L 119.1 -131.8 L 119.1 -131.8 Q 121.2 -131.8 121.3 -130.9 L 121.3 -130.9 L 121.3 -130.9 Q 121.8 -128.1 121.8 -120.4 L 121.8 -120.4 L 121.8 -120.4 Q 121.8 -112.7 121.4 -105.2 L 121.4 -105.2 L 121.4 -105.2 Q 121 -97.8 121 -88.3 L 121 -88.3 L 121 -88.3 Q 121 -78.9 122.2 -76.5 L 122.2 -76.5 L 122.2 -76.5 Q 122.6 -75.9 122.6 -75.4 L 122.6 -75.4 L 122.6 -75.4 Q 122.6 -74.2 119.1 -74.2 L 119.1 -74.2 L 119.1 -74.2 Q 112.4 -74.2 112.4 -77.3 L 112.4 -77.3 L 112.4 -77.3 Q 112.3 -78.6 112.3 -81.4 L 112.3 -81.4 L 112.3 -81.4 Q 112.3 -84.1 112.8 -91.5 L 112.8 -91.5 L 112.8 -91.5 Q 113.3 -98.9 113.3 -102.9 L 113.3 -102.9 L 113.3 -102.9 Q 113.3 -106.9 109.3 -106.9 L 109.3 -106.9 L 109.3 -106.9 Q 105.3 -106.9 103.2 -102.2 L 103.2 -102.2 L 103.2 -102.2 Q 101.1 -97.5 101.1 -92.8 L 101.1 -92.8 L 101.1 -92.8 Q 101.1 -82.9 106.1 -82.9 L 106.1 -82.9 L 106.1 -82.9 Q 106.8 -82.9 107.5 -83.1 L 107.5 -83.1 L 107.5 -83.1 Q 108.2 -83.4 108.4 -83.4 L 108.4 -83.4 L 108.4 -83.4 Q 109 -83.4 109.4 -82.6 L 109.4 -82.6 L 109.4 -82.6 Q 109.8 -81.8 109.8 -81 L 109.8 -81 L 109.8 -81 Q 109.8 -78.2 107.6 -76.3 L 107.6 -76.3 L 107.6 -76.3 Q 105.4 -74.4 102.2 -74.4 L 102.2 -74.4 L 102.2 -74.4 Q 97.4 -74.4 94.9 -78.7 L 94.9 -78.7 L 94.9 -78.7 Q 92.4 -82.9 92.4 -89.3 L 92.4 -89.3 L 92.4 -89.3 Q 92.4 -97.3 96.2 -104.2 L 96.2 -104.2 L 96.2 -104.2 Q 98.2 -107.6 101.5 -109.6 L 101.5 -109.6 L 101.5 -109.6 Q 104.8 -111.7 109 -111.7 Z M 140.5 -52.9 L 140.5 -52.9 L 140.5 -52.9 Q 140.5 -51.9 139.6 -51.9 L 139.6 -51.9 L 139.5 -51.9 L 139.5 -51.9 Q 136.8 -51.9 133.5 -53.8 L 133.5 -53.8 L 133.5 -53.8 Q 130.1 -55.6 130.1 -58.1 L 130.1 -58.1 L 130.1 -58.1 Q 130.1 -60.5 133.2 -66.5 L 133.2 -66.5 L 133.2 -66.5 Q 136.3 -72.6 136.3 -74.6 L 136.3 -74.6 L 136.3 -74.6 Q 136.3 -76.8 134.1 -82.5 L 134.1 -82.5 L 134.1 -82.5 Q 131.5 -89.8 129.9 -94.4 L 129.9 -94.4 L 129.9 -94.4 Q 128.3 -99.1 126.5 -102.6 L 126.5 -102.6 L 126.5 -102.6 Q 124.7 -106.1 123.9 -106.8 L 123.9 -106.8 L 123.1 -107.3 L 123.1 -107.3 Q 122.2 -107.8 122.2 -108.4 L 122.2 -108.4 L 122.2 -108.4 Q 122.2 -109.5 125.7 -110.7 L 125.7 -110.7 L 125.7 -110.7 Q 129.2 -111.9 131.9 -111.9 L 131.9 -111.9 L 131.9 -111.9 Q 133.1 -111.9 133.9 -109.9 L 133.9 -109.9 L 133.9 -109.9 Q 135.4 -106.1 137.1 -99.4 L 137.1 -99.4 L 137.1 -99.4 Q 141.2 -85.6 142.2 -85.6 L 142.2 -85.6 L 142.2 -85.6 Q 143 -85.6 145.2 -91.3 L 145.2 -91.3 L 145.2 -91.3 Q 147.4 -97 147.4 -100.4 L 147.4 -100.4 L 147.4 -100.4 Q 147.4 -106.5 143.9 -107.6 L 143.9 -107.6 L 143.9 -107.6 Q 143.1 -107.7 143.1 -108.4 L 143.1 -108.4 L 143.1 -108.4 Q 143.1 -109.8 146.9 -111.2 L 146.9 -111.2 L 146.9 -111.2 Q 150.7 -112.5 153.7 -112.5 L 153.7 -112.5 L 153.7 -112.5 Q 156.4 -112.5 156.4 -109 L 156.4 -109 L 156.4 -109 Q 156.4 -106.3 155.3 -102.8 L 155.3 -102.8 L 155.3 -102.8 Q 154.2 -99.2 153.2 -97.2 L 153.2 -97.2 L 153.2 -97.2 Q 152.2 -95.1 148.4 -87.6 L 148.4 -87.6 L 148.4 -87.6 Q 144.5 -80.1 142 -74.4 L 142 -74.4 L 142 -74.4 Q 139.3 -67.6 139.3 -60.6 L 139.3 -60.6 L 139.3 -60.6 Q 139.3 -56.9 139.9 -55 L 139.9 -55 L 139.9 -55 Q 140.5 -53.1 140.5 -52.9 Z M 164.7 -132.9 L 164.7 -132.9 L 164.7 -132.9 Q 165.3 -132.8 166.1 -132 L 166.1 -132 L 166.1 -132 Q 167 -131.3 167 -129.4 L 167 -129.4 L 167 -129.4 Q 167 -127.5 166.2 -124.8 L 166.2 -124.8 L 166.2 -124.8 Q 165.5 -122.1 164.7 -120.7 L 164.7 -120.7 L 164 -119.2 L 164 -119.2 Q 163.2 -118 162.9 -118 L 162.9 -118 L 162.7 -118 L 162.7 -118 Q 162 -118 162 -118.6 L 162 -118.6 L 162 -118.6 Q 162 -123.8 160 -128.5 L 160 -128.5 L 160 -128.5 Q 159.3 -130.1 159.3 -130.2 L 159.3 -130.2 L 159.3 -130.2 Q 159.3 -131.5 160.8 -132.2 L 160.8 -132.2 L 160.8 -132.2 Q 162.2 -132.9 163.1 -133 L 163.1 -133 L 163.1 -133 Q 164.1 -133 164.7 -132.9 Z M 191.2 -86.4 L 191.2 -86.4 L 191.2 -86.4 Q 191.2 -82.9 189.8 -80.3 L 189.8 -80.3 L 189.8 -80.3 Q 188.5 -77.8 186.8 -76.5 L 186.8 -76.5 L 186.8 -76.5 Q 185.1 -75.3 182.7 -74.6 L 182.7 -74.6 L 182.7 -74.6 Q 179.7 -73.6 177.2 -73.6 L 177.2 -73.6 L 177.2 -73.6 Q 171.9 -73.6 168.4 -75.7 L 168.4 -75.7 L 168.4 -75.7 Q 164.9 -77.8 164.9 -82.3 L 164.9 -82.3 L 164.9 -82.3 Q 164.9 -85 166.4 -86.7 L 166.4 -86.7 L 166.4 -86.7 Q 168.7 -89.2 171.8 -89.2 L 171.8 -89.2 L 171.8 -89.2 Q 172.8 -89.2 172.8 -88.3 L 172.8 -88.3 L 172.8 -88.3 Q 172.8 -88.2 172.4 -87 L 172.4 -87 L 172.4 -87 Q 172.1 -85.9 172.1 -84.1 L 172.1 -84.1 L 172.1 -84.1 Q 172.1 -82.3 173.5 -80.9 L 173.5 -80.9 L 173.5 -80.9 Q 174.9 -79.5 176.9 -79.5 L 176.9 -79.5 L 176.9 -79.5 Q 178.9 -79.5 180.2 -80.2 L 180.2 -80.2 L 180.2 -80.2 Q 181.4 -80.9 181.9 -82 L 181.9 -82 L 181.9 -82 Q 182.6 -83.4 182.6 -84.7 L 182.6 -84.7 L 182.6 -84.7 Q 182.6 -87.1 180.2 -88.8 L 180.2 -88.8 L 180.2 -88.8 Q 177.9 -90.5 175.1 -91.4 L 175.1 -91.4 L 175.1 -91.4 Q 172.2 -92.4 169.9 -94.7 L 169.9 -94.7 L 169.9 -94.7 Q 167.5 -97 167.5 -100.4 L 167.5 -100.4 L 167.5 -100.4 Q 167.5 -106.2 171.2 -109.1 L 171.2 -109.1 L 171.2 -109.1 Q 174.9 -112 181.2 -112 L 181.2 -112 L 181.2 -112 Q 184 -112 187 -111.2 L 187 -111.2 L 187 -111.2 Q 190 -110.5 190 -108.7 L 190 -108.7 L 190 -108.7 Q 190 -106.8 189.4 -105.3 L 189.4 -105.3 L 189.4 -105.3 Q 188.8 -103.8 187.9 -103.8 L 187.9 -103.8 L 187.9 -103.8 Q 187.4 -103.8 187.3 -104.1 L 187.3 -104.1 L 187.3 -104.1 Q 187.1 -104.5 186.7 -105 L 186.7 -105 L 186.7 -105 Q 186.3 -105.5 184.8 -106.2 L 184.8 -106.2 L 184.8 -106.2 Q 183.2 -107 182.1 -107 L 182.1 -107 L 182.1 -107 Q 181 -107 180.7 -107 L 180.7 -107 L 180.7 -107 Q 180.3 -106.9 179.4 -106.7 L 179.4 -106.7 L 179.4 -106.7 Q 178.5 -106.5 177.8 -106.1 L 177.8 -106.1 L 177.8 -106.1 Q 175.9 -105.1 175.9 -103 L 175.9 -103 L 175.9 -103 Q 175.9 -101.7 176.5 -101.1 L 176.5 -101.1 L 176.5 -101.1 Q 177.1 -100.5 177.4 -100.2 L 177.4 -100.2 L 177.4 -100.2 Q 177.7 -99.9 178.5 -99.4 L 178.5 -99.4 L 178.5 -99.4 Q 179.3 -99 179.7 -98.8 L 179.7 -98.8 L 179.7 -98.8 Q 180 -98.7 181.1 -98.1 L 181.1 -98.1 L 181.1 -98.1 Q 182.3 -97.6 182.6 -97.4 L 182.6 -97.4 L 182.6 -97.4 Q 191.2 -93.4 191.2 -86.4 Z M 222 -111.2 L 222 -111.2 L 222 -111.2 Q 222 -86.1 223.1 -78.3 L 223.1 -78.3 L 223.1 -78.3 Q 223.1 -76.4 219.4 -75.1 L 219.4 -75.1 L 219.4 -75.1 Q 215.6 -73.9 213.2 -73.9 L 213.2 -73.9 L 213.2 -73.9 Q 210.8 -73.9 210.8 -74.6 L 210.8 -74.6 L 210.8 -74.6 Q 210.8 -75.1 211 -75.8 L 211 -75.8 L 211 -75.8 Q 212.6 -79.2 212.6 -103.2 L 212.6 -103.2 L 212.6 -103.2 Q 212.6 -125.9 210.6 -128.4 L 210.6 -128.4 L 210.3 -128.9 L 210.3 -128.9 Q 209.8 -129.3 209.8 -129.9 L 209.8 -129.9 L 209.8 -129.9 Q 209.8 -130.5 210.7 -130.9 L 210.7 -130.9 L 210.7 -130.9 Q 211.9 -131.6 215 -132.3 L 215 -132.3 L 215 -132.3 Q 218.1 -133.1 220.7 -133.1 L 220.7 -133.1 L 220.7 -133.1 Q 223.2 -133.1 223.2 -131.9 L 223.2 -131.9 L 223.2 -131.7 L 223.2 -131.7 Q 222.2 -123.3 222 -111.2 Z M 247.1 -74.8 L 247.1 -74.8 L 247.1 -74.8 Q 248.3 -80.5 248.3 -90.8 L 248.3 -90.8 L 248.3 -90.8 Q 248.3 -101 248.2 -102.9 L 248.2 -102.9 L 248.2 -102.9 Q 248.1 -104.7 247.1 -105.9 L 247.1 -105.9 L 247.1 -105.9 Q 246 -107 245.2 -107.2 L 245.2 -107.2 L 245.2 -107.2 Q 244.5 -107.3 243.1 -107.3 L 243.1 -107.3 L 243.1 -107.3 Q 241.7 -107.3 240.4 -106.1 L 240.4 -106.1 L 240.4 -106.1 Q 239.1 -104.8 238.9 -103.5 L 238.9 -103.5 L 238.6 -102.2 L 238.6 -102.2 Q 238.3 -99.8 238.3 -91.4 L 238.3 -91.4 L 238.3 -91.4 Q 238.3 -83.1 238.7 -81 L 238.7 -81 L 238.7 -81 Q 239 -78.8 239 -78.1 L 239 -78.1 L 239 -78.1 Q 239 -77.3 238.4 -76.6 L 238.4 -76.6 L 238.4 -76.6 Q 235.6 -73.7 230.6 -73.7 L 230.6 -73.7 L 230.6 -73.7 Q 228.8 -73.7 228.8 -74.8 L 228.8 -74.8 L 228.8 -74.8 Q 230.5 -84.5 230.5 -99.5 L 230.5 -99.5 L 230.5 -99.5 Q 230.5 -105.1 230.2 -107.1 L 230.2 -107.1 L 229.9 -109.7 L 229.9 -109.7 Q 229.8 -110.6 229.6 -111.6 L 229.6 -111.6 L 229.6 -111.6 Q 229.6 -112.6 232.1 -112.6 L 232.1 -112.6 L 232.1 -112.6 Q 235.8 -112.6 237 -109.8 L 237 -109.8 L 237 -109.8 Q 237.1 -109.5 237.3 -109.5 L 237.3 -109.5 L 237.3 -109.5 Q 237.6 -109.5 238.5 -110.2 L 238.5 -110.2 L 238.5 -110.2 Q 241.1 -112.3 245.7 -112.3 L 245.7 -112.3 L 245.7 -112.3 Q 248.3 -112.3 250.8 -111.3 L 250.8 -111.3 L 250.8 -111.3 Q 253.3 -110.3 254.3 -108.7 L 254.3 -108.7 L 254.3 -108.7 Q 254.4 -108.5 254.5 -108.5 L 254.5 -108.5 L 254.5 -108.5 Q 254.7 -108.5 255 -108.9 L 255 -108.9 L 255 -108.9 Q 258.4 -112.3 263.8 -112.3 L 263.8 -112.3 L 263.8 -112.3 Q 271 -112.3 273.7 -107.1 L 273.7 -107.1 L 273.7 -107.1 Q 274.7 -105.1 274.7 -102 L 274.7 -102 L 274.7 -102 Q 274.7 -98.9 274.2 -93.2 L 274.2 -93.2 L 274.2 -93.2 Q 273.7 -87.6 273.7 -84.6 L 273.7 -84.6 L 273.7 -84.6 Q 273.7 -81.6 274.3 -79.1 L 274.3 -79.1 L 274.3 -79.1 Q 274.9 -76.7 275.5 -75.6 L 275.5 -75.6 L 275.5 -75.6 Q 276.1 -74.6 276.1 -74.4 L 276.1 -74.4 L 276.1 -74.4 Q 276.1 -73.4 273.9 -73.4 L 273.9 -73.4 L 273.9 -73.4 Q 268.3 -73.4 266.1 -75.6 L 266.1 -75.6 L 266.1 -75.6 Q 263.9 -77.9 263.9 -81.6 L 263.9 -81.6 L 263.9 -81.6 Q 263.9 -85.3 265.4 -91.6 L 265.4 -91.6 L 265.4 -91.6 Q 266.9 -97.8 266.9 -101 L 266.9 -101 L 266.9 -101 Q 266.9 -107.4 261.7 -107.4 L 261.7 -107.4 L 261.7 -107.4 Q 259.5 -107.4 258.2 -106.1 L 258.2 -106.1 L 258.2 -106.1 Q 256.9 -104.8 256.7 -103.5 L 256.7 -103.5 L 256.5 -102.2 L 256.5 -102.2 Q 256.2 -98.5 256.2 -93.2 L 256.2 -93.2 L 256.2 -93.2 Q 256.2 -88 256.4 -85 L 256.4 -85 L 256.4 -85 Q 256.5 -82 256.7 -80.4 L 256.7 -80.4 L 256.7 -80.4 Q 256.9 -78.7 256.9 -78.4 L 256.9 -78.4 L 256.9 -78.4 Q 256.9 -76.1 254 -74.9 L 254 -74.9 L 254 -74.9 Q 251.2 -73.7 248.5 -73.7 L 248.5 -73.7 L 248.5 -73.7 Q 247.1 -73.7 247.1 -74.8 Z M 305.9 -99.6 L 305.9 -99.6 L 305.7 -89.3 L 305.7 -89.3 Q 305.7 -78.5 308.1 -76.3 L 308.1 -76.3 L 308.1 -76.3 Q 308.4 -76 308.4 -75.6 L 308.4 -75.6 L 308.4 -75.6 Q 308.4 -74.4 303.2 -74.4 L 303.2 -74.4 L 303.2 -74.4 Q 297.9 -74.4 297.6 -77.4 L 297.6 -77.4 L 297.6 -77.4 Q 297.5 -78.2 297.5 -80.4 L 297.5 -80.4 L 297.8 -93.4 L 297.8 -93.4 Q 297.8 -94 297.2 -94 L 297.2 -94 L 297.2 -94 Q 293.3 -94 289.9 -91.8 L 289.9 -91.8 L 289.9 -91.8 Q 286.5 -89.6 286.5 -86.2 L 286.5 -86.2 L 286.5 -86.2 Q 286.5 -84.4 287.5 -83.2 L 287.5 -83.2 L 287.5 -83.2 Q 288.5 -82 289.9 -82 L 289.9 -82 L 289.9 -82 Q 291.3 -82 292.2 -82.5 L 292.2 -82.5 L 292.2 -82.5 Q 293.2 -83.1 293.3 -83.2 L 293.3 -83.2 L 293.3 -83.2 Q 294.7 -83 294.7 -80.3 L 294.7 -80.3 L 294.7 -80.3 Q 294.7 -77.6 292.2 -75.9 L 292.2 -75.9 L 292.2 -75.9 Q 289.7 -74.3 286.9 -74.3 L 286.9 -74.3 L 286.9 -74.3 Q 284.2 -74.3 282.2 -75.2 L 282.2 -75.2 L 282.2 -75.2 Q 280.2 -76.2 279.3 -77.4 L 279.3 -77.4 L 279.3 -77.4 Q 278.4 -78.6 277.8 -80.2 L 277.8 -80.2 L 277.8 -80.2 Q 277.3 -82 277.3 -83.4 L 277.3 -83.4 L 277.3 -83.4 Q 277.3 -89.1 280.8 -92.5 L 280.8 -92.5 L 280.8 -92.5 Q 284.4 -95.9 290 -97.4 L 290 -97.4 L 290 -97.4 Q 297.4 -98.8 297.7 -100 L 297.7 -100 L 297.7 -100 Q 297.9 -100.9 297.9 -103 L 297.9 -103 L 297.9 -103 Q 297.9 -107.3 293.6 -107.3 L 293.6 -107.3 L 293.6 -107.3 Q 291.7 -107.3 290.2 -106.1 L 290.2 -106.1 L 290.2 -106.1 Q 288.8 -105 288.8 -103.2 L 288.8 -103.2 L 289.3 -101.2 L 289.3 -101.2 Q 289.1 -99.9 286.3 -99.6 L 286.3 -99.6 L 285.5 -99.5 L 285.5 -99.5 Q 283 -99.5 281.6 -100.8 L 281.6 -100.8 L 281.6 -100.8 Q 280.2 -102 280.2 -104 L 280.2 -104 L 280.2 -104 Q 280.2 -105.3 281 -106.9 L 281 -106.9 L 281 -106.9 Q 281.9 -108.5 283.2 -109.4 L 283.2 -109.4 L 283.2 -109.4 Q 284.5 -110.4 287.2 -111.2 L 287.2 -111.2 L 287.2 -111.2 Q 289.9 -111.9 292.4 -111.9 L 292.4 -111.9 L 292.4 -111.9 Q 294.9 -111.9 296.3 -111.8 L 296.3 -111.8 L 296.3 -111.8 Q 297.7 -111.6 300.1 -111 L 300.1 -111 L 300.1 -111 Q 302.5 -110.4 304 -108.7 L 304 -108.7 L 304 -108.7 Q 305.6 -107 305.7 -105.1 L 305.7 -105.1 L 305.7 -105.1 Q 305.9 -103.2 305.9 -99.6 Z M 316.2 -108 L 316.2 -108 L 316.2 -108 Q 317.9 -109.8 320.9 -111.1 L 320.9 -111.1 L 320.9 -111.1 Q 323.8 -112.3 326.4 -112.3 L 326.4 -112.3 L 326.4 -112.3 Q 329.1 -112.3 331.9 -111.1 L 331.9 -111.1 L 331.9 -111.1 Q 332.2 -111.1 332.4 -111.3 L 332.4 -111.3 L 332.4 -111.3 Q 334.5 -113.4 338.5 -113.4 L 338.5 -113.4 L 338.5 -113.4 Q 339.5 -113.4 339.5 -112.5 L 339.5 -112.5 L 339.5 -112.5 Q 339.5 -112.4 339.3 -111.8 L 339.3 -111.8 L 339.3 -111.8 Q 339.2 -111.1 338.9 -109.9 L 338.9 -109.9 L 338.9 -109.9 Q 338.7 -108.6 338.5 -106.8 L 338.5 -106.8 L 338.5 -106.8 Q 337.9 -102.2 337.9 -96.6 L 337.9 -96.6 L 337.9 -96.6 Q 337.9 -91 337.9 -85.5 L 337.9 -85.5 L 338.1 -68.4 L 338.1 -68.4 Q 338.1 -60.3 333.9 -54.8 L 333.9 -54.8 L 333.9 -54.8 Q 332.2 -52.6 328.7 -51 L 328.7 -51 L 328.7 -51 Q 325.3 -49.4 320.7 -49.4 L 320.7 -49.4 L 320.7 -49.4 Q 319.6 -50.1 319.6 -50.7 L 319.6 -50.7 L 319.6 -50.7 Q 319.6 -51.3 320.5 -51.8 L 320.5 -51.8 L 320.5 -51.8 Q 325.6 -54.1 327.8 -62.9 L 327.8 -62.9 L 327.8 -62.9 Q 330 -71.7 330 -89.6 L 330 -89.6 L 329.8 -100.9 L 329.6 -106.4 L 329.6 -106.4 Q 329.6 -107.2 327.3 -107.5 L 327.3 -107.5 L 327.3 -107.5 Q 324.4 -107.5 322.4 -105.6 L 322.4 -105.6 L 322.4 -105.6 Q 320.4 -103.7 319.7 -100.6 L 319.7 -100.6 L 319.7 -100.6 Q 318.4 -95.7 318.4 -92.1 L 318.4 -92.1 L 318.4 -92.1 Q 318.4 -88.4 319.6 -85.7 L 319.6 -85.7 L 319.6 -85.7 Q 320.8 -82.9 323.7 -82.9 L 323.7 -82.9 L 323.7 -82.9 Q 324.5 -82.9 325.2 -83.3 L 325.2 -83.3 L 325.2 -83.3 Q 325.9 -83.6 326.1 -83.6 L 326.1 -83.6 L 326.1 -83.6 Q 326.9 -83.6 326.9 -82 L 326.9 -82 L 326.9 -82 Q 326.9 -80.3 326.7 -79.3 L 326.7 -79.3 L 326.7 -79.3 Q 326.4 -78.3 325.7 -77.1 L 325.7 -77.1 L 325.7 -77.1 Q 324.1 -74.4 319.4 -74.4 L 319.4 -74.4 L 319.4 -74.4 Q 314.7 -74.4 312.7 -77.8 L 312.7 -77.8 L 312.7 -77.8 Q 310.6 -81.3 310.2 -84.1 L 310.2 -84.1 L 310.2 -84.1 Q 309.8 -88.2 309.8 -89.5 L 309.8 -89.5 L 309.8 -89.5 Q 309.8 -90.8 309.8 -91.6 L 309.8 -91.6 L 309.8 -91.6 Q 309.8 -92.3 310.2 -94.6 L 310.2 -94.6 L 310.2 -94.6 Q 310.6 -97 311.2 -99 L 311.2 -99 L 311.2 -99 Q 311.8 -101.1 313.1 -103.6 L 313.1 -103.6 L 313.1 -103.6 Q 314.4 -106.2 316.2 -108 Z M 350.8 -95.9 L 350.8 -95.9 L 350.9 -93.9 L 350.9 -93.9 Q 350.9 -93.4 351.6 -93.4 L 351.6 -93.4 L 351.6 -93.4 Q 354.1 -93.6 356.1 -94.7 L 356.1 -94.7 L 356.1 -94.7 Q 358 -95.8 359 -97.2 L 359 -97.2 L 359 -97.2 Q 360.9 -100.2 361.1 -102.4 L 361.1 -102.4 L 361.2 -103.4 L 361.2 -103.4 Q 361.2 -107.7 357.7 -107.7 L 357.7 -107.7 L 357.7 -107.7 Q 355.1 -107.7 353.5 -105.5 L 353.5 -105.5 L 353.5 -105.5 Q 350.8 -101.9 350.8 -95.9 Z M 368.5 -85.1 L 368.5 -85.1 L 368.5 -85.1 Q 368.5 -82 367.2 -79.7 L 367.2 -79.7 L 367.2 -79.7 Q 366 -77.4 364.4 -76.3 L 364.4 -76.3 L 364.4 -76.3 Q 362.8 -75.2 360.7 -74.6 L 360.7 -74.6 L 360.7 -74.6 Q 358 -73.8 355.6 -73.8 L 355.6 -73.8 L 355.6 -73.8 Q 348.8 -73.8 345.6 -78.9 L 345.6 -78.9 L 345.6 -78.9 Q 342.3 -84 342.3 -91.9 L 342.3 -91.9 L 342.3 -91.9 Q 342.3 -99.8 346.3 -105.9 L 346.3 -105.9 L 346.3 -105.9 Q 350.3 -112.1 358.4 -112.1 L 358.4 -112.1 L 358.4 -112.1 Q 365.6 -112.1 368.2 -107 L 368.2 -107 L 368.2 -107 Q 369.3 -105.1 369.3 -103.3 L 369.3 -103.3 L 369.3 -103.3 Q 369.3 -101.6 369.1 -100.6 L 369.1 -100.6 L 369.1 -100.6 Q 369 -99.5 368 -97.5 L 368 -97.5 L 368 -97.5 Q 367 -95.5 365.4 -93.9 L 365.4 -93.9 L 365.4 -93.9 Q 363.8 -92.3 360.3 -90.8 L 360.3 -90.8 L 360.3 -90.8 Q 356.8 -89.3 352.1 -88.9 L 352.1 -88.9 L 352.1 -88.9 Q 351.5 -88.9 351.5 -88.3 L 351.5 -88.3 L 351.5 -88.3 Q 351.5 -87.6 352 -86.1 L 352 -86.1 L 352 -86.1 Q 352.5 -84.7 353.2 -83.7 L 353.2 -83.7 L 353.2 -83.7 Q 355 -81.5 358.4 -81.5 L 358.4 -81.5 L 358.4 -81.5 Q 361.9 -81.5 364.3 -83.7 L 364.3 -83.7 L 364.3 -83.7 Q 365.6 -85 366.5 -86.7 L 366.5 -86.7 L 366.5 -86.7 Q 366.8 -87.4 367.3 -87.4 L 367.3 -87.4 L 367.3 -87.4 Q 367.8 -87.4 368.2 -86.5 L 368.2 -86.5 L 368.2 -86.5 Q 368.5 -85.6 368.5 -85.1 Z M 397.6 -86.4 L 397.6 -86.4 L 397.6 -86.4 Q 397.6 -82.9 396.2 -80.3 L 396.2 -80.3 L 396.2 -80.3 Q 394.9 -77.8 393.2 -76.5 L 393.2 -76.5 L 393.2 -76.5 Q 391.5 -75.3 389.1 -74.6 L 389.1 -74.6 L 389.1 -74.6 Q 386.1 -73.6 383.5 -73.6 L 383.5 -73.6 L 383.5 -73.6 Q 378.3 -73.6 374.8 -75.7 L 374.8 -75.7 L 374.8 -75.7 Q 371.3 -77.8 371.3 -82.3 L 371.3 -82.3 L 371.3 -82.3 Q 371.3 -85 372.8 -86.7 L 372.8 -86.7 L 372.8 -86.7 Q 375 -89.2 378.2 -89.2 L 378.2 -89.2 L 378.2 -89.2 Q 379.2 -89.2 379.2 -88.3 L 379.2 -88.3 L 379.2 -88.3 Q 379.2 -88.2 378.8 -87 L 378.8 -87 L 378.8 -87 Q 378.4 -85.9 378.4 -84.1 L 378.4 -84.1 L 378.4 -84.1 Q 378.4 -82.3 379.9 -80.9 L 379.9 -80.9 L 379.9 -80.9 Q 381.3 -79.5 383.3 -79.5 L 383.3 -79.5 L 383.3 -79.5 Q 385.3 -79.5 386.5 -80.2 L 386.5 -80.2 L 386.5 -80.2 Q 387.8 -80.9 388.2 -82 L 388.2 -82 L 388.2 -82 Q 389 -83.4 389 -84.7 L 389 -84.7 L 389 -84.7 Q 389 -87.1 386.6 -88.8 L 386.6 -88.8 L 386.6 -88.8 Q 384.3 -90.5 381.4 -91.4 L 381.4 -91.4 L 381.4 -91.4 Q 378.6 -92.4 376.3 -94.7 L 376.3 -94.7 L 376.3 -94.7 Q 373.9 -97 373.9 -100.4 L 373.9 -100.4 L 373.9 -100.4 Q 373.9 -106.2 377.6 -109.1 L 377.6 -109.1 L 377.6 -109.1 Q 381.3 -112 387.6 -112 L 387.6 -112 L 387.6 -112 Q 390.4 -112 393.4 -111.2 L 393.4 -111.2 L 393.4 -111.2 Q 396.4 -110.5 396.4 -108.7 L 396.4 -108.7 L 396.4 -108.7 Q 396.4 -106.8 395.8 -105.3 L 395.8 -105.3 L 395.8 -105.3 Q 395.2 -103.8 394.3 -103.8 L 394.3 -103.8 L 394.3 -103.8 Q 393.8 -103.8 393.7 -104.1 L 393.7 -104.1 L 393.7 -104.1 Q 393.5 -104.5 393.1 -105 L 393.1 -105 L 393.1 -105 Q 392.7 -105.5 391.2 -106.2 L 391.2 -106.2 L 391.2 -106.2 Q 389.6 -107 388.5 -107 L 388.5 -107 L 388.5 -107 Q 387.4 -107 387.1 -107 L 387.1 -107 L 387.1 -107 Q 386.7 -106.9 385.8 -106.7 L 385.8 -106.7 L 385.8 -106.7 Q 384.9 -106.5 384.2 -106.1 L 384.2 -106.1 L 384.2 -106.1 Q 382.3 -105.1 382.3 -103 L 382.3 -103 L 382.3 -103 Q 382.3 -101.7 382.9 -101.1 L 382.9 -101.1 L 382.9 -101.1 Q 383.5 -100.5 383.8 -100.2 L 383.8 -100.2 L 383.8 -100.2 Q 384.1 -99.9 384.9 -99.4 L 384.9 -99.4 L 384.9 -99.4 Q 385.7 -99 386.1 -98.8 L 386.1 -98.8 L 386.1 -98.8 Q 386.4 -98.7 387.5 -98.1 L 387.5 -98.1 L 387.5 -98.1 Q 388.6 -97.6 389 -97.4 L 389 -97.4 L 389 -97.4 Q 397.6 -93.4 397.6 -86.4 Z M 443.6 -91.4 L 443.5 -99.1 L 443.5 -99.1 Q 443.5 -101 441.2 -101.2 L 441.2 -101.2 L 435.5 -101.2 L 435.5 -101.2 Q 434.8 -101.2 434.8 -101.6 L 434.8 -101.6 L 434.8 -101.6 Q 435.3 -103.9 436.5 -105.3 L 436.5 -105.3 L 436.5 -105.3 Q 437.7 -106.8 438.5 -106.9 L 438.5 -106.9 L 438.5 -106.9 Q 440.8 -107.2 446 -107.2 L 446 -107.2 L 446 -107.2 Q 451.2 -107.2 452.5 -107.2 L 452.5 -107.2 L 452.5 -107.2 Q 453.8 -107.2 454.1 -106.9 L 454.1 -106.9 L 454.1 -106.9 Q 454.4 -106.5 454.4 -106 L 454.4 -106 L 454.4 -106 Q 454.4 -105.5 454.1 -99.3 L 454.1 -99.3 L 454.1 -99.3 Q 453.9 -93.1 453.9 -88.2 L 453.9 -88.2 L 453.9 -88.2 Q 453.9 -83.3 454.2 -82 L 454.2 -82 L 454.2 -82 Q 454.5 -80.8 454.5 -80.4 L 454.5 -80.4 L 454.5 -80.4 Q 454.5 -79.1 452.2 -77.6 L 452.2 -77.6 L 452.2 -77.6 Q 450 -76.1 445.4 -75 L 445.4 -75 L 445.4 -75 Q 440.8 -73.9 435.3 -73.9 L 435.3 -73.9 L 435.3 -73.9 Q 427.9 -73.9 422.5 -79 L 422.5 -79 L 422.5 -79 Q 418.3 -83 416.7 -87.8 L 416.7 -87.8 L 416.7 -87.8 Q 415.1 -92.6 415.1 -101.2 L 415.1 -101.2 L 415.1 -101.2 Q 415.1 -133.4 438.7 -133.4 L 438.7 -133.4 L 438.7 -133.4 Q 442.7 -133.4 445.8 -132.6 L 445.8 -132.6 L 445.8 -132.6 Q 449 -131.7 451.4 -129.2 L 451.4 -129.2 L 451.4 -129.2 Q 453.8 -126.8 453.8 -122.9 L 453.8 -122.9 L 453.8 -122.9 Q 453.8 -120.8 453 -118.7 L 453 -118.7 L 453 -118.7 Q 451.5 -114.4 446.5 -114.4 L 446.5 -114.4 L 446.5 -114.4 Q 443.7 -114.4 442.3 -115.9 L 442.3 -115.9 L 442.3 -115.9 Q 440.9 -117.3 440.9 -119.8 L 440.9 -119.8 L 440.9 -119.8 Q 440.9 -120.8 441.9 -121 L 441.9 -121 L 441.9 -121 Q 443.5 -121.9 443.5 -124 L 443.5 -124 L 443.5 -124 Q 443.5 -126.2 441.9 -127.4 L 441.9 -127.4 L 441.9 -127.4 Q 440.2 -128.5 438.5 -128.5 L 438.5 -128.5 L 438.5 -128.5 Q 434.6 -128.5 431.9 -125.7 L 431.9 -125.7 L 431.9 -125.7 Q 429.2 -123 428 -118.4 L 428 -118.4 L 428 -118.4 Q 426 -110.3 426 -101.9 L 426 -101.9 L 426 -101.9 Q 426 -88.1 432.7 -83.6 L 432.7 -83.6 L 432.7 -83.6 Q 435.2 -81.8 438 -81.8 L 438 -81.8 L 438 -81.8 Q 443.1 -81.8 443.4 -83.7 L 443.4 -83.7 L 443.4 -83.7 Q 443.6 -86.2 443.6 -91.4 L 443.6 -91.4 Z M 485.9 -99.6 L 485.9 -99.6 L 485.8 -89.3 L 485.8 -89.3 Q 485.8 -78.5 488.1 -76.3 L 488.1 -76.3 L 488.1 -76.3 Q 488.4 -76 488.4 -75.6 L 488.4 -75.6 L 488.4 -75.6 Q 488.4 -74.4 483.2 -74.4 L 483.2 -74.4 L 483.2 -74.4 Q 478 -74.4 477.7 -77.4 L 477.7 -77.4 L 477.7 -77.4 Q 477.6 -78.2 477.6 -80.4 L 477.6 -80.4 L 477.9 -93.4 L 477.9 -93.4 Q 477.9 -94 477.3 -94 L 477.3 -94 L 477.3 -94 Q 473.4 -94 470 -91.8 L 470 -91.8 L 470 -91.8 Q 466.6 -89.6 466.6 -86.2 L 466.6 -86.2 L 466.6 -86.2 Q 466.6 -84.4 467.5 -83.2 L 467.5 -83.2 L 467.5 -83.2 Q 468.5 -82 469.9 -82 L 469.9 -82 L 469.9 -82 Q 471.4 -82 472.3 -82.5 L 472.3 -82.5 L 472.3 -82.5 Q 473.2 -83.1 473.4 -83.2 L 473.4 -83.2 L 473.4 -83.2 Q 474.8 -83 474.8 -80.3 L 474.8 -80.3 L 474.8 -80.3 Q 474.8 -77.6 472.2 -75.9 L 472.2 -75.9 L 472.2 -75.9 Q 469.7 -74.3 467 -74.3 L 467 -74.3 L 467 -74.3 Q 464.2 -74.3 462.2 -75.2 L 462.2 -75.2 L 462.2 -75.2 Q 460.3 -76.2 459.4 -77.4 L 459.4 -77.4 L 459.4 -77.4 Q 458.5 -78.6 457.9 -80.2 L 457.9 -80.2 L 457.9 -80.2 Q 457.3 -82 457.3 -83.4 L 457.3 -83.4 L 457.3 -83.4 Q 457.3 -89.1 460.9 -92.5 L 460.9 -92.5 L 460.9 -92.5 Q 464.5 -95.9 470.1 -97.4 L 470.1 -97.4 L 470.1 -97.4 Q 477.4 -98.8 477.7 -100 L 477.7 -100 L 477.7 -100 Q 478 -100.9 478 -103 L 478 -103 L 478 -103 Q 478 -107.3 473.6 -107.3 L 473.6 -107.3 L 473.6 -107.3 Q 471.8 -107.3 470.3 -106.1 L 470.3 -106.1 L 470.3 -106.1 Q 468.8 -105 468.8 -103.2 L 468.8 -103.2 L 469.3 -101.2 L 469.3 -101.2 Q 469.2 -99.9 466.4 -99.6 L 466.4 -99.6 L 465.5 -99.5 L 465.5 -99.5 Q 463.1 -99.5 461.7 -100.8 L 461.7 -100.8 L 461.7 -100.8 Q 460.3 -102 460.3 -104 L 460.3 -104 L 460.3 -104 Q 460.3 -105.3 461.1 -106.9 L 461.1 -106.9 L 461.1 -106.9 Q 462 -108.5 463.2 -109.4 L 463.2 -109.4 L 463.2 -109.4 Q 464.5 -110.4 467.3 -111.2 L 467.3 -111.2 L 467.3 -111.2 Q 470 -111.9 472.5 -111.9 L 472.5 -111.9 L 472.5 -111.9 Q 475 -111.9 476.4 -111.8 L 476.4 -111.8 L 476.4 -111.8 Q 477.7 -111.6 480.1 -111 L 480.1 -111 L 480.1 -111 Q 482.5 -110.4 484.1 -108.7 L 484.1 -108.7 L 484.1 -108.7 Q 485.7 -107 485.8 -105.1 L 485.8 -105.1 L 485.8 -105.1 Q 485.9 -103.2 485.9 -99.6 Z M 501 -121.7 L 501 -121.7 L 500.5 -91.9 L 500.5 -91.9 Q 500.5 -78 501.4 -75.2 L 501.4 -75.2 L 501.4 -75.2 Q 501.6 -74.8 501.6 -74.3 L 501.6 -74.3 L 501.6 -74.3 Q 501.6 -73.3 499.3 -73.3 L 499.3 -73.3 L 499.3 -73.3 Q 496.9 -73.3 494.1 -74.5 L 494.1 -74.5 L 494.1 -74.5 Q 491.2 -75.6 491.2 -77.5 L 491.2 -77.5 L 491.2 -77.5 Q 492.8 -88.9 492.8 -107.8 L 492.8 -107.8 L 492.5 -120.2 L 492.5 -120.2 Q 492.3 -122.5 491.6 -124.1 L 491.6 -124.1 L 491.6 -124.1 Q 490.8 -125.7 490.1 -126.2 L 490.1 -126.2 L 489.4 -126.6 L 489.4 -126.6 Q 488.8 -126.9 488.8 -127.3 L 488.8 -127.3 L 488.8 -127.3 Q 488.8 -128.5 492.4 -130.1 L 492.4 -130.1 L 492.4 -130.1 Q 495.9 -131.8 499.2 -131.8 L 499.2 -131.8 L 499.2 -131.8 Q 500.5 -131.8 500.7 -130.9 L 500.7 -130.9 L 500.7 -130.9 Q 501 -128.8 501 -121.7 Z M 517.4 -121.7 L 517.4 -121.7 L 517 -91.9 L 517 -91.9 Q 517 -78 517.8 -75.2 L 517.8 -75.2 L 517.8 -75.2 Q 518.1 -74.8 518.1 -74.3 L 518.1 -74.3 L 518.1 -74.3 Q 518.1 -73.3 515.7 -73.3 L 515.7 -73.3 L 515.7 -73.3 Q 513.4 -73.3 510.5 -74.5 L 510.5 -74.5 L 510.5 -74.5 Q 507.6 -75.6 507.6 -77.5 L 507.6 -77.5 L 507.6 -77.5 Q 509.3 -88.9 509.3 -107.8 L 509.3 -107.8 L 508.9 -120.2 L 508.9 -120.2 Q 508.8 -122.5 508 -124.1 L 508 -124.1 L 508 -124.1 Q 507.2 -125.7 506.5 -126.2 L 506.5 -126.2 L 505.9 -126.6 L 505.9 -126.6 Q 505.3 -126.9 505.3 -127.3 L 505.3 -127.3 L 505.3 -127.3 Q 505.3 -128.5 508.8 -130.1 L 508.8 -130.1 L 508.8 -130.1 Q 512.3 -131.8 515.7 -131.8 L 515.7 -131.8 L 515.7 -131.8 Q 517 -131.8 517.1 -130.9 L 517.1 -130.9 L 517.1 -130.9 Q 517.4 -128.8 517.4 -121.7 Z M 530.6 -95.9 L 530.6 -95.9 L 530.7 -93.9 L 530.7 -93.9 Q 530.7 -93.4 531.4 -93.4 L 531.4 -93.4 L 531.4 -93.4 Q 534 -93.6 535.9 -94.7 L 535.9 -94.7 L 535.9 -94.7 Q 537.9 -95.8 538.8 -97.2 L 538.8 -97.2 L 538.8 -97.2 Q 540.8 -100.2 540.9 -102.4 L 540.9 -102.4 L 541 -103.4 L 541 -103.4 Q 541 -107.7 537.5 -107.7 L 537.5 -107.7 L 537.5 -107.7 Q 534.9 -107.7 533.3 -105.5 L 533.3 -105.5 L 533.3 -105.5 Q 530.6 -101.9 530.6 -95.9 Z M 548.3 -85.1 L 548.3 -85.1 L 548.3 -85.1 Q 548.3 -82 547 -79.7 L 547 -79.7 L 547 -79.7 Q 545.8 -77.4 544.2 -76.3 L 544.2 -76.3 L 544.2 -76.3 Q 542.6 -75.2 540.5 -74.6 L 540.5 -74.6 L 540.5 -74.6 Q 537.9 -73.8 535.4 -73.8 L 535.4 -73.8 L 535.4 -73.8 Q 528.6 -73.8 525.4 -78.9 L 525.4 -78.9 L 525.4 -78.9 Q 522.1 -84 522.1 -91.9 L 522.1 -91.9 L 522.1 -91.9 Q 522.1 -99.8 526.1 -105.9 L 526.1 -105.9 L 526.1 -105.9 Q 530.2 -112.1 538.2 -112.1 L 538.2 -112.1 L 538.2 -112.1 Q 545.5 -112.1 548.1 -107 L 548.1 -107 L 548.1 -107 Q 549.1 -105.1 549.1 -103.3 L 549.1 -103.3 L 549.1 -103.3 Q 549.1 -101.6 548.9 -100.6 L 548.9 -100.6 L 548.9 -100.6 Q 548.8 -99.5 547.8 -97.5 L 547.8 -97.5 L 547.8 -97.5 Q 546.8 -95.5 545.2 -93.9 L 545.2 -93.9 L 545.2 -93.9 Q 543.6 -92.3 540.1 -90.8 L 540.1 -90.8 L 540.1 -90.8 Q 536.6 -89.3 531.9 -88.9 L 531.9 -88.9 L 531.9 -88.9 Q 531.3 -88.9 531.3 -88.3 L 531.3 -88.3 L 531.3 -88.3 Q 531.3 -87.6 531.8 -86.1 L 531.8 -86.1 L 531.8 -86.1 Q 532.3 -84.7 533 -83.7 L 533 -83.7 L 533 -83.7 Q 534.8 -81.5 538.3 -81.5 L 538.3 -81.5 L 538.3 -81.5 Q 541.7 -81.5 544.2 -83.7 L 544.2 -83.7 L 544.2 -83.7 Q 545.5 -85 546.3 -86.7 L 546.3 -86.7 L 546.3 -86.7 Q 546.6 -87.4 547.1 -87.4 L 547.1 -87.4 L 547.1 -87.4 Q 547.7 -87.4 548 -86.5 L 548 -86.5 L 548 -86.5 Q 548.3 -85.6 548.3 -85.1 Z M 577.1 -103.2 L 576.7 -97 L 577 -94.2 L 577 -94.2 Q 577 -92.7 574.1 -92.7 L 574.1 -92.7 L 574.1 -92.7 Q 568.1 -92.7 568.1 -97.1 L 568.1 -97.1 L 568.1 -97.1 Q 568.1 -98.2 568.7 -100 L 568.7 -100 L 568.7 -100 Q 569.3 -101.9 569.3 -103.3 L 569.3 -103.3 L 569.3 -103.3 Q 569.3 -104.6 568.5 -105.7 L 568.5 -105.7 L 568.5 -105.7 Q 567.7 -106.7 566.1 -106.7 L 566.1 -106.7 L 566.1 -106.7 Q 564.6 -106.7 563.5 -105.6 L 563.5 -105.6 L 563.5 -105.6 Q 562.4 -104.5 562.2 -103.4 L 562.2 -103.4 L 561.8 -102.2 L 561.8 -102.2 Q 561.3 -99.7 561.3 -93.8 L 561.3 -93.8 L 561.3 -93.8 Q 561.3 -88 561.5 -84.6 L 561.5 -84.6 L 561.5 -84.6 Q 561.7 -81.2 561.8 -80 L 561.8 -80 L 561.8 -80 Q 562 -78.7 562 -78.5 L 562 -78.5 L 562 -78.5 Q 562 -76.5 559.5 -75.2 L 559.5 -75.2 L 559.5 -75.2 Q 557 -73.9 554.5 -73.9 L 554.5 -73.9 L 554.5 -73.9 Q 551.9 -73.9 551.9 -75 L 551.9 -75 L 552.4 -77.5 L 552.4 -77.5 Q 553.5 -84.6 553.5 -95.9 L 553.5 -95.9 L 553.5 -95.9 Q 553.5 -107.2 552.7 -111.3 L 552.7 -111.3 L 552.7 -111.3 Q 552.7 -112.3 554.4 -112.3 L 554.4 -112.3 L 554.4 -112.3 Q 558.7 -112.3 560.2 -109.3 L 560.2 -109.3 L 560.2 -109.3 Q 560.3 -108.9 560.5 -108.9 L 560.5 -108.9 L 560.5 -108.9 Q 560.7 -108.9 561.6 -109.7 L 561.6 -109.7 L 561.6 -109.7 Q 564.3 -111.9 567.9 -111.9 L 567.9 -111.9 L 567.9 -111.9 Q 570.2 -111.9 572.4 -111 L 572.4 -111 L 572.4 -111 Q 577.1 -109.1 577.1 -103.2 L 577.1 -103.2 Z M 595 -52.9 L 595 -52.9 L 595 -52.9 Q 595 -51.9 594.1 -51.9 L 594.1 -51.9 L 594 -51.9 L 594 -51.9 Q 591.3 -51.9 587.9 -53.8 L 587.9 -53.8 L 587.9 -53.8 Q 584.6 -55.6 584.6 -58.1 L 584.6 -58.1 L 584.6 -58.1 Q 584.6 -60.5 587.7 -66.5 L 587.7 -66.5 L 587.7 -66.5 Q 590.7 -72.6 590.7 -74.6 L 590.7 -74.6 L 590.7 -74.6 Q 590.7 -76.8 588.6 -82.5 L 588.6 -82.5 L 588.6 -82.5 Q 586 -89.8 584.4 -94.4 L 584.4 -94.4 L 584.4 -94.4 Q 582.8 -99.1 581 -102.6 L 581 -102.6 L 581 -102.6 Q 579.2 -106.1 578.4 -106.8 L 578.4 -106.8 L 577.5 -107.3 L 577.5 -107.3 Q 576.7 -107.8 576.7 -108.4 L 576.7 -108.4 L 576.7 -108.4 Q 576.7 -109.5 580.2 -110.7 L 580.2 -110.7 L 580.2 -110.7 Q 583.7 -111.9 586.4 -111.9 L 586.4 -111.9 L 586.4 -111.9 Q 587.6 -111.9 588.4 -109.9 L 588.4 -109.9 L 588.4 -109.9 Q 589.9 -106.1 591.6 -99.4 L 591.6 -99.4 L 591.6 -99.4 Q 595.7 -85.6 596.7 -85.6 L 596.7 -85.6 L 596.7 -85.6 Q 597.5 -85.6 599.7 -91.3 L 599.7 -91.3 L 599.7 -91.3 Q 601.9 -97 601.9 -100.4 L 601.9 -100.4 L 601.9 -100.4 Q 601.9 -106.5 598.4 -107.6 L 598.4 -107.6 L 598.4 -107.6 Q 597.5 -107.7 597.5 -108.4 L 597.5 -108.4 L 597.5 -108.4 Q 597.5 -109.8 601.4 -111.2 L 601.4 -111.2 L 601.4 -111.2 Q 605.2 -112.5 608.2 -112.5 L 608.2 -112.5 L 608.2 -112.5 Q 610.9 -112.5 610.9 -109 L 610.9 -109 L 610.9 -109 Q 610.9 -106.3 609.8 -102.8 L 609.8 -102.8 L 609.8 -102.8 Q 608.6 -99.2 607.7 -97.2 L 607.7 -97.2 L 607.7 -97.2 Q 606.7 -95.1 602.9 -87.6 L 602.9 -87.6 L 602.9 -87.6 Q 599 -80.1 596.5 -74.4 L 596.5 -74.4 L 596.5 -74.4 Q 593.7 -67.6 593.7 -60.6 L 593.7 -60.6 L 593.7 -60.6 Q 593.7 -56.9 594.4 -55 L 594.4 -55 L 594.4 -55 Q 595 -53.1 595 -52.9 Z" fill="url(#editing-gradow-gradient)"></path></g></g><style>text {
  font-size: 64px;
  font-family: Arial Black;
  dominant-baseline: central;
  text-anchor: middle;
}</style></svg>